<?xml version="1.0" encoding="iso-8859-1"?>
<!-- Generator: Adobe Illustrator 19.0.0, SVG Export Plug-In . SVG Version: 6.00 Build 0)  -->
<svg version="1.1" id="Capa_1" xmlns="http://www.w3.org/2000/svg" xmlns:xlink="http://www.w3.org/1999/xlink" x="0px" y="0px"
	 viewBox="0 0 469.333 469.333" style="enable-background:new 0 0 469.333 469.333;" xml:space="preserve">
<path style="fill:#303C42;" d="M463.958,129.406l-224-128c-3.271-1.875-7.313-1.875-10.583,0l-224,128
	C2.052,131.302,0,134.844,0,138.667v64c0,3.802,2.021,7.313,5.313,9.229c3.281,1.896,7.344,1.927,10.646,0.031l5.375-3.072v217.811
	c0,23.531,19.135,42.667,42.667,42.667h341.333c23.531,0,42.667-19.135,42.667-42.667V208.855l5.375,3.072
	c1.635,0.938,3.469,1.406,5.292,1.406c1.854,0,3.698-0.479,5.354-1.438c3.292-1.917,5.313-5.427,5.313-9.229v-64
	C469.333,134.844,467.281,131.302,463.958,129.406z"/>
<path style="fill:#6D4C41;" d="M320,448H149.333V298.667c0-47.052,38.281-85.333,85.333-85.333S320,251.615,320,298.667V448z"/>
<path style="opacity:0.1;enable-background:new    ;" d="M170,331.333C170,284.281,208.281,246,255.333,246
	c23.126,0,44.069,9.322,59.453,24.314c-11.755-33.083-43.056-56.98-80.12-56.98c-47.052,0-85.333,38.281-85.333,85.333V448H170
	V331.333z"/>
<path style="fill:#8D6E63;" d="M426.667,426.667c0,11.76-9.573,21.333-21.333,21.333h-64V298.667
	c0-58.813-47.854-106.667-106.667-106.667S128,239.854,128,298.667V448H64c-11.76,0-21.333-9.573-21.333-21.333V196.665l192-109.717
	l192,109.717V426.667z"/>
<path style="fill:#D32F2F;" d="M448,184.281L239.958,65.406C238.323,64.469,236.49,64,234.667,64s-3.656,0.469-5.292,1.406
	L21.333,184.281v-39.427L234.667,22.948L448,144.854V184.281z"/>
<linearGradient id="SVGID_1_" gradientUnits="userSpaceOnUse" x1="-60.9298" y1="619.0393" x2="-46.3318" y2="604.4423" gradientTransform="matrix(21.3333 0 0 -21.3333 1430.1112 13315.2227)">
	<stop  offset="0" style="stop-color:#000000;stop-opacity:0.1"/>
	<stop  offset="1" style="stop-color:#000000;stop-opacity:0"/>
</linearGradient>
<path style="fill:url(#SVGID_1_);" d="M234.667,213.333c-47.052,0-85.333,38.281-85.333,85.333v38.189L260.478,448H320V298.667
	C320,251.615,281.719,213.333,234.667,213.333z M234.667,86.948l-192,109.717v33.523L128,315.522v-16.855
	C128,239.854,175.854,192,234.667,192s106.667,47.854,106.667,106.667V448h64c11.76,0,21.333-9.573,21.333-21.333V196.665
	L234.667,86.948z"/>
<linearGradient id="SVGID_2_" gradientUnits="userSpaceOnUse" x1="-67.5822" y1="616.5909" x2="-44.949" y2="606.0408" gradientTransform="matrix(21.3333 0 0 -21.3333 1430.1112 13315.2227)">
	<stop  offset="0" style="stop-color:#FFFFFF;stop-opacity:0.2"/>
	<stop  offset="1" style="stop-color:#FFFFFF;stop-opacity:0"/>
</linearGradient>
<path style="fill:url(#SVGID_2_);" d="M463.958,129.406l-224-128c-3.271-1.875-7.313-1.875-10.583,0l-224,128
	C2.052,131.302,0,134.844,0,138.667v64c0,3.802,2.021,7.313,5.313,9.229c3.281,1.896,7.344,1.927,10.646,0.031l5.375-3.072v217.811
	c0,23.531,19.135,42.667,42.667,42.667h341.333c23.531,0,42.667-19.135,42.667-42.667V208.855l5.375,3.072
	c1.635,0.938,3.469,1.406,5.292,1.406c1.854,0,3.698-0.479,5.354-1.438c3.292-1.917,5.313-5.427,5.313-9.229v-64
	C469.333,134.844,467.281,131.302,463.958,129.406z"/>
<g>
</g>
<g>
</g>
<g>
</g>
<g>
</g>
<g>
</g>
<g>
</g>
<g>
</g>
<g>
</g>
<g>
</g>
<g>
</g>
<g>
</g>
<g>
</g>
<g>
</g>
<g>
</g>
<g>
</g>
</svg>
