<?xml version="1.0" encoding="utf-8"?>
<!-- Generator: Adobe Illustrator 16.0.0, SVG Export Plug-In . SVG Version: 6.00 Build 0)  -->
<!DOCTYPE svg PUBLIC "-//W3C//DTD SVG 1.1//EN" "http://www.w3.org/Graphics/SVG/1.1/DTD/svg11.dtd">
<svg version="1.1" id="Layer_1" xmlns="http://www.w3.org/2000/svg" xmlns:xlink="http://www.w3.org/1999/xlink" x="0px" y="0px"
	 width="36px" height="55px" viewBox="0 0 36 55" enable-background="new 0 0 36 55" xml:space="preserve">
<path fill="#FFFFFF" d="M7.024,28.136l1.234-0.853l0.651,0.943l-0.739,0.876L7.024,28.136z M4.192,35.672l-1.5,0.03l0-0.015v-0.016
	H4.192z M7.504,43.736l1.068-1.053h0L7.504,43.736z M31.792,45.128l-1.431-0.452l0.008-0.023l0.008-0.023L31.792,45.128z
	 M32.032,14.312l1.476-0.268l0.012,0.065l0.006,0.067L32.032,14.312z M31.552,13.064l-1.323,0.706l-0.004-0.008l-0.004-0.008
	L31.552,13.064z M8.32,14.84l1.078,1.044l-0.008,0.008l-0.008,0.009L8.32,14.84z M12.976,33.368l1.413,0.505l-0.016,0.043
	l-0.019,0.043L12.976,33.368z M13.84,32.408l-0.628-1.362l0.035-0.017l0.036-0.014L13.84,32.408z M19.12,31.352l0.921,1.185l0,0
	L19.12,31.352z M19.12,25.832l0.89-1.208l0.016,0.011l0.016,0.012L19.12,25.832z M13.84,24.152l-1.401,0.534l-0.026-0.069
	l-0.019-0.07L13.84,24.152z M14.512,20.744l0.795,1.272l-0.017,0.011l-0.018,0.01L14.512,20.744z M23.584,20.264v-1.5h1.5v1.5
	H23.584z M23.584,38.456h1.5v1.5h-1.5V38.456z M8.171,29.103c-1.673,1.985-2.479,4.159-2.479,6.569h-3
	c0-3.157,1.082-6.008,3.185-8.502L8.171,29.103z M5.692,35.643c0.057,2.836,1.02,5.152,2.88,7.041l-2.137,2.105
	c-2.427-2.463-3.672-5.523-3.743-9.087L5.692,35.643z M8.573,42.684c1.827,1.854,4.016,2.769,6.659,2.769v3
	c-3.437,0-6.399-1.229-8.796-3.663L8.573,42.684z M15.232,45.452h12.624v3H15.232V45.452z M27.855,45.452
	c2.142,0,2.446-0.587,2.506-0.776l2.861,0.904c-0.709,2.242-3.027,2.872-5.367,2.872V45.452z M30.377,44.629
	c0.105-0.296,0.203-0.918,0.203-1.997h3c0,1.161-0.094,2.203-0.373,2.995L30.377,44.629z M30.58,42.632v-26.64h3v26.64H30.58z
	 M30.58,15.992c0-0.763-0.017-1.265-0.042-1.544l2.987-0.271c0.039,0.424,0.055,1.042,0.055,1.816H30.58z M30.557,14.58
	c-0.026-0.141-0.111-0.404-0.328-0.81l2.646-1.412c0.296,0.554,0.53,1.124,0.633,1.686L30.557,14.58z M30.221,13.754
	c-0.001-0.001-0.012-0.024-0.065-0.065c-0.06-0.045-0.171-0.112-0.366-0.179c-0.404-0.14-1.043-0.242-1.98-0.242v-3
	c1.109,0,2.118,0.114,2.962,0.406c0.854,0.296,1.657,0.82,2.113,1.699L30.221,13.754z M27.809,13.268H15.712v-3h12.097V13.268z
	 M15.712,13.268c-2.553,0-4.623,0.87-6.314,2.616l-2.155-2.087c2.277-2.35,5.134-3.528,8.469-3.528V13.268z M9.381,15.901
	C7.579,17.703,6.7,19.818,6.7,22.328h-3c0-3.314,1.201-6.191,3.559-8.549L9.381,15.901z M6.7,22.328
	c0,1.803,0.513,3.442,1.558,4.955L5.79,28.988c-1.387-2.007-2.09-4.239-2.09-6.66H6.7z M11.188,35.191
	c0-0.867,0.104-1.703,0.409-2.414l2.757,1.182c-0.079,0.185-0.167,0.564-0.167,1.232H11.188z M11.563,32.863
	c0.29-0.811,0.851-1.449,1.648-1.817l1.257,2.724c-0.02,0.01-0.03,0.017-0.035,0.02c-0.004,0.003-0.006,0.005-0.007,0.006
	c0,0-0.017,0.019-0.038,0.078L11.563,32.863z M13.283,31.016c0.897-0.359,2.013-0.492,3.245-0.492v3
	c-1.071,0-1.748,0.124-2.13,0.277L13.283,31.016z M16.527,30.523c1,0,1.473-0.201,1.672-0.355l1.842,2.368
	c-0.953,0.741-2.208,0.987-3.514,0.987V30.523z M18.199,30.168c-0.017,0.014,0.059-0.033,0.139-0.287
	c0.082-0.262,0.146-0.669,0.146-1.265h3c0,1.458-0.281,3.016-1.443,3.92L18.199,30.168z M18.484,28.616
	c0-0.614-0.064-1.036-0.148-1.308c-0.084-0.267-0.16-0.311-0.137-0.292l1.842-2.368c1.168,0.909,1.443,2.493,1.443,3.968H18.484z
	 M18.23,27.04c-0.213-0.156-0.801-0.379-2.086-0.379v-3c1.466,0,2.862,0.225,3.866,0.964L18.23,27.04z M16.144,26.66
	c-1.377,0-3.087-0.35-3.706-1.974l2.803-1.068c-0.013-0.033-0.036-0.069-0.062-0.094c-0.022-0.022-0.023-0.013,0.029,0.01
	c0.122,0.053,0.404,0.126,0.935,0.126V26.66z M12.393,24.547c-0.153-0.56-0.197-1.309-0.197-2.123h3
	c0,0.787,0.052,1.189,0.091,1.333L12.393,24.547z M12.196,22.424c0-1.167,0.428-2.309,1.556-2.973l1.521,2.586
	c-0.017,0.01-0.02,0.014-0.018,0.012s0-0.001-0.005,0.011c-0.013,0.026-0.054,0.129-0.054,0.364H12.196z M13.717,19.472
	c0.87-0.543,1.994-0.708,3.146-0.708v3c-0.958,0-1.401,0.155-1.556,0.252L13.717,19.472z M16.863,18.764h6.721v3h-6.721V18.764z
	 M25.084,20.264v18.192h-3V20.264H25.084z M23.584,39.956h-7.872v-3h7.872V39.956z M15.712,39.956c-1.27,0-2.489-0.349-3.368-1.297
	c-0.859-0.927-1.156-2.175-1.156-3.468h3c0,0.885,0.207,1.268,0.356,1.43c0.129,0.139,0.421,0.335,1.167,0.335V39.956z"/>
</svg>
