<?xml version="1.0" encoding="utf-8"?>
<!-- Generator: Adobe Illustrator 16.0.0, SVG Export Plug-In . SVG Version: 6.00 Build 0)  -->
<!DOCTYPE svg PUBLIC "-//W3C//DTD SVG 1.1//EN" "http://www.w3.org/Graphics/SVG/1.1/DTD/svg11.dtd">
<svg version="1.1" id="Layer_1" xmlns="http://www.w3.org/2000/svg" xmlns:xlink="http://www.w3.org/1999/xlink" x="0px" y="0px"
	 width="100px" height="100px" viewBox="0 0 100 100" enable-background="new 0 0 100 100" xml:space="preserve">
<path fill="#333333" d="M100,86.381C100,94.162,93.975,100,86.006,100H15.069C7.101,100,0,94.162,0,86.381V14.745
	C0,6.961,7.101,0,15.069,0h70.937C93.975,0,100,6.961,100,14.745V86.381z"/>
<path fill="#FFFFFF" d="M20.966,46.325l2.966-1.75L25.5,46.51l-1.776,1.798L20.966,46.325z M14.159,61.79l-3.604,0.061l-0.002-0.031
	V61.79H14.159z M22.119,78.338l2.568-2.159h0L22.119,78.338z M80.495,81.194l-3.44-0.928l0.019-0.049l0.021-0.049L80.495,81.194z
	 M81.072,17.957l3.544-0.549l0.031,0.134l0.013,0.137L81.072,17.957z M79.917,15.396l-3.18,1.449l-0.011-0.016l-0.008-0.015
	L79.917,15.396z M24.081,19.041l2.59,2.142l-0.02,0.017l-0.021,0.019L24.081,19.041z M35.272,57.063l3.396,1.034l-0.04,0.088
	l-0.044,0.088L35.272,57.063z M37.349,55.092l-1.511-2.794l0.084-0.036l0.086-0.027L37.349,55.092z M50.039,52.924l2.213,2.431l0,0
	L50.039,52.924z M50.039,41.597l2.138-2.478l0.037,0.024l0.038,0.024L50.039,41.597z M37.349,38.149l-3.368,1.095l-0.064-0.14
	l-0.045-0.145L37.349,38.149z M38.964,31.157l1.911,2.609l-0.041,0.022l-0.043,0.021L38.964,31.157z M60.768,30.171v-3.078h3.604
	v3.078H60.768z M60.768,67.502h3.604v3.077h-3.604V67.502z M23.724,48.309c-4.021,4.073-5.959,8.533-5.959,13.481h-7.211
	c0-6.48,2.602-12.33,7.657-17.449L23.724,48.309z M17.765,61.729c0.137,5.819,2.45,10.574,6.923,14.449l-5.136,4.32
	c-5.833-5.054-8.825-11.335-8.997-18.648L17.765,61.729z M24.688,76.179c4.391,3.804,9.653,5.68,16.005,5.68v6.157
	c-8.26,0-15.38-2.524-21.142-7.517L24.688,76.179z M40.693,81.858h30.341v6.157H40.693V81.858z M71.034,81.858
	c5.146,0,5.879-1.205,6.021-1.592l6.878,1.855c-1.705,4.6-7.275,5.894-12.898,5.894V81.858z M77.095,80.169
	c0.251-0.605,0.487-1.883,0.487-4.099h7.21c0,2.384-0.226,4.521-0.898,6.146L77.095,80.169z M77.582,76.07V21.404h7.21V76.07H77.582
	z M77.582,21.404c0-1.564-0.04-2.595-0.102-3.169l7.18-0.557c0.096,0.871,0.132,2.138,0.132,3.726H77.582z M77.526,18.506
	c-0.065-0.29-0.269-0.828-0.789-1.662l6.36-2.897c0.71,1.137,1.274,2.306,1.519,3.461L77.526,18.506z M76.719,16.813
	c-0.003-0.003-0.027-0.05-0.157-0.135c-0.143-0.092-0.411-0.229-0.882-0.368c-0.972-0.288-2.506-0.496-4.761-0.496V9.658
	c2.668,0,5.092,0.234,7.119,0.834c2.054,0.607,3.984,1.681,5.081,3.485L76.719,16.813z M70.919,15.814H41.847V9.658h29.072V15.814z
	 M41.847,15.814c-6.135,0-11.112,1.784-15.177,5.368l-5.18-4.283c5.473-4.823,12.339-7.241,20.356-7.241V15.814z M26.63,21.218
	c-4.331,3.697-6.443,8.038-6.443,13.189h-7.21c0-6.801,2.887-12.705,8.554-17.543L26.63,21.218z M20.188,34.407
	c0,3.7,1.232,7.064,3.745,10.168L18,48.074c-3.332-4.119-5.022-8.7-5.022-13.667H20.188z M30.975,60.803
	c0-1.778,0.25-3.493,0.982-4.952l6.627,2.422c-0.189,0.381-0.401,1.161-0.401,2.53H30.975z M31.876,56.025
	c0.696-1.665,2.043-2.973,3.961-3.728l3.021,5.586c-0.046,0.022-0.073,0.035-0.083,0.041c-0.01,0.007-0.015,0.012-0.017,0.012
	c0,0-0.042,0.04-0.091,0.16L31.876,56.025z M36.009,52.234c2.158-0.736,4.839-1.011,7.799-1.011v6.157
	c-2.575,0-4.202,0.251-5.122,0.568L36.009,52.234z M43.808,51.224c2.403,0,3.539-0.413,4.018-0.729l4.426,4.86
	c-2.29,1.521-5.308,2.026-8.444,2.026V51.224z M47.826,50.495c-0.042,0.029,0.14-0.067,0.333-0.589
	c0.197-0.537,0.351-1.373,0.351-2.595h7.209c0,2.991-0.675,6.189-3.468,8.044L47.826,50.495z M48.51,47.311
	c0-1.261-0.154-2.126-0.357-2.684c-0.201-0.547-0.385-0.637-0.328-0.6l4.426-4.86c2.808,1.864,3.468,5.115,3.468,8.144H48.51z
	 M47.899,44.074c-0.51-0.32-1.924-0.778-5.014-0.778v-6.155c3.525,0,6.878,0.461,9.292,1.978L47.899,44.074z M42.885,43.296
	c-3.31,0-7.418-0.717-8.905-4.051l6.737-2.191c-0.03-0.068-0.086-0.141-0.148-0.193c-0.053-0.045-0.056-0.026,0.07,0.02
	c0.292,0.109,0.969,0.26,2.246,0.26V43.296z M33.871,38.959c-0.368-1.149-0.475-2.687-0.475-4.357h7.21
	c0,1.614,0.125,2.442,0.22,2.736L33.871,38.959z M33.396,34.603c0-2.395,1.028-4.737,3.74-6.101l3.655,5.308
	c-0.04,0.02-0.047,0.028-0.042,0.024c0.006-0.005,0-0.003-0.013,0.021c-0.031,0.053-0.129,0.265-0.129,0.748H33.396z M37.053,28.546
	c2.088-1.115,4.792-1.453,7.56-1.453v6.156c-2.303,0-3.368,0.317-3.739,0.516L37.053,28.546z M44.613,27.093h16.154v6.156H44.613
	V27.093z M64.372,30.171v37.331h-7.21V30.171H64.372z M60.768,70.579h-18.92v-6.155h18.92V70.579z M41.847,70.579
	c-3.052,0-5.984-0.715-8.096-2.662c-2.064-1.901-2.777-4.46-2.777-7.114h7.208c0,1.816,0.499,2.602,0.858,2.935
	c0.311,0.284,1.012,0.687,2.806,0.687V70.579z"/>
</svg>
