<svg width="25" height="25" viewBox="0 0 25 25" fill="none" xmlns="http://www.w3.org/2000/svg">
<g clip-path="url(#clip0)">
<path d="M24.9971 2.96132C24.3011 4.23611 23.4472 5.3228 22.4354 6.2214C22.4454 6.4624 22.4504 6.73479 22.4504 7.03857C22.4504 8.72646 22.2505 10.4164 21.8508 12.1083C21.4511 13.8003 20.8406 15.4199 20.0192 16.9669C19.1978 18.514 18.2194 19.8846 17.0839 21.0786C15.9484 22.2727 14.5835 23.2248 12.9892 23.9349C11.3949 24.645 9.6862 25 7.86316 25C5.018 25 2.3979 24.0542 0.00283813 22.1627C0.427933 22.2209 0.835635 22.2501 1.22594 22.2501C3.60284 22.2501 5.72579 21.3486 7.59479 19.5456C6.48655 19.5206 5.49403 19.1006 4.61725 18.2854C3.74046 17.4703 3.13708 16.4287 2.8071 15.1607C3.13326 15.2372 3.45517 15.2755 3.77284 15.2755C4.23009 15.2755 4.68002 15.202 5.12263 15.0552C3.93993 14.7635 2.95878 14.0382 2.17918 12.8792C1.3996 11.7202 1.00982 10.3825 1.00982 8.8661V8.78795C1.73576 9.28288 2.5101 9.54615 3.33283 9.57775C2.6322 9.00262 2.07671 8.25262 1.66636 7.32777C1.25598 6.40292 1.05079 5.40207 1.05079 4.32522C1.05079 3.18951 1.28191 2.13194 1.74416 1.15252C3.03033 3.09597 4.58879 4.64924 6.41954 5.81232C8.25032 6.97542 10.2144 7.62137 12.3118 7.75017C12.2223 7.29112 12.1775 6.81208 12.1773 6.31305C12.1773 4.57062 12.6781 3.08283 13.6797 1.8497C14.6812 0.616567 15.8895 0 17.3046 0C18.7861 0 20.0341 0.664258 21.0484 1.99277C22.2072 1.71012 23.2923 1.19888 24.3036 0.45905C23.914 1.96888 23.1632 3.13362 22.0513 3.95325C23.0733 3.80372 24.0552 3.47307 24.9971 2.96132H24.9971Z" fill="#DDDDDD"/>
</g>
<defs>
<clipPath id="clip0">
<rect width="25" height="25" fill="white"/>
</clipPath>
</defs>
</svg>
