<svg width="25" height="25" viewBox="0 0 25 25" fill="none" xmlns="http://www.w3.org/2000/svg">
<path d="M12.5 0.309375C5.59453 0.309375 0 5.90859 0 12.8094C0 18.3352 3.58125 23.0187 8.54453 24.6711C9.17188 24.7891 9.39844 24.4023 9.39844 24.068C9.39844 23.7711 9.39141 22.9859 9.38672 21.9437C5.90781 22.6969 5.175 20.2633 5.175 20.2633C4.60547 18.8227 3.78359 18.4359 3.78359 18.4359C2.65234 17.6633 3.87344 17.6797 3.87344 17.6797C5.12656 17.7648 5.78594 18.9648 5.78594 18.9648C6.90078 20.8773 8.71094 20.3242 9.42734 20.0023C9.53672 19.1969 9.8625 18.643 10.2172 18.3344C7.44219 18.0211 4.52422 16.9469 4.52422 12.157C4.52422 10.7891 5.00859 9.675 5.80937 8.8C5.67109 8.48672 5.24766 7.21328 5.91953 5.49141C5.91953 5.49141 6.96563 5.15781 9.35703 6.77344C10.3757 6.49638 11.4264 6.35428 12.482 6.35078C13.5445 6.35781 14.6062 6.49687 15.607 6.77344C17.9844 5.15781 19.0297 5.49141 19.0297 5.49141C19.7008 7.21328 19.2773 8.48594 19.1555 8.8C19.9484 9.675 20.4328 10.7898 20.4328 12.157C20.4328 16.9578 17.5109 18.0164 14.7328 18.3219C15.1672 18.6961 15.5742 19.4656 15.5742 20.6336C15.5742 22.3055 15.5586 23.6523 15.5586 24.0594C15.5586 24.3844 15.7773 24.775 16.4211 24.6492C21.4211 23.0141 24.9984 18.3266 24.9984 12.8086C24.9984 5.90781 19.4039 0.308594 12.4984 0.308594L12.5 0.309375Z" fill="#DDDDDD"/>
</svg>
