<svg width="25" height="25" viewBox="0 0 25 25" fill="none" xmlns="http://www.w3.org/2000/svg">
<path d="M12.5004 0C9.10278 0 8.67934 0.0164063 7.34966 0.0726563C6.0145 0.138281 5.11137 0.345313 4.3145 0.654688C3.48048 0.969547 2.72517 1.46251 2.10122 2.09922C1.46274 2.72172 0.969496 3.47745 0.656686 4.3125C0.347311 5.10938 0.14028 6.0125 0.0746552 7.34766C0.0144989 8.67812 0.0019989 9.10078 0.0019989 12.4984C0.0019989 15.8961 0.0184052 16.3195 0.0746552 17.6492C0.14028 18.9805 0.347311 19.8875 0.656686 20.6844C0.971546 21.5184 1.46451 22.2737 2.10122 22.8977C2.72372 23.5361 3.47945 24.0294 4.3145 24.3422C5.11137 24.6477 6.0184 24.8586 7.34966 24.9242C8.68012 24.9844 9.10278 24.9969 12.5004 24.9969C15.8981 24.9969 16.3215 24.9805 17.6512 24.9242C18.9825 24.8586 19.8895 24.6469 20.6864 24.3422C21.5204 24.0273 22.2757 23.5344 22.8997 22.8977C23.539 22.2758 24.0323 21.5199 24.3442 20.6844C24.6497 19.8875 24.8606 18.9805 24.9262 17.6492C24.9864 16.3188 24.9989 15.8961 24.9989 12.4984C24.9989 9.10078 24.9825 8.67734 24.9262 7.34766C24.8606 6.01641 24.6489 5.10469 24.3442 4.3125C24.0293 3.47849 23.5364 2.72317 22.8997 2.09922C22.2778 1.45991 21.5219 0.966547 20.6864 0.654688C19.8895 0.345313 18.9825 0.138281 17.6512 0.0726563C16.3207 0.0125 15.8981 0 12.5004 0ZM12.5004 2.25C15.8372 2.25 16.2356 2.26641 17.5543 2.32266C18.7707 2.37969 19.4332 2.58281 19.8731 2.75469C20.4169 2.95541 20.909 3.27488 21.3137 3.68984C21.728 4.09283 22.0462 4.58387 22.245 5.12656C22.4168 5.56641 22.62 6.22891 22.677 7.44531C22.7332 8.76406 22.7497 9.16328 22.7497 12.4992C22.7497 15.8352 22.7332 16.2344 22.6723 17.5531C22.6067 18.7695 22.4036 19.432 22.2325 19.8719C21.9957 20.4586 21.7317 20.8687 21.2957 21.3125C20.8897 21.7249 20.3978 22.0428 19.8551 22.2437C19.4207 22.4156 18.7489 22.6187 17.5278 22.6758C16.202 22.732 15.8114 22.7484 12.4661 22.7484C9.12075 22.7484 8.73091 22.732 7.40356 22.6711C6.18716 22.6055 5.51606 22.4023 5.07622 22.2312C4.48247 21.9945 4.07544 21.7305 3.6395 21.2945C3.19966 20.8547 2.91997 20.4359 2.70434 19.8539C2.52934 19.4195 2.32934 18.7477 2.2645 17.5266C2.21997 16.2164 2.19887 15.8102 2.19887 12.4805C2.19887 9.15234 2.21997 8.74531 2.2645 7.41875C2.32934 6.19766 2.52934 5.52734 2.70434 5.09141C2.91997 4.49688 3.20044 4.09062 3.6395 3.65078C4.07466 3.21562 4.48247 2.93438 5.07622 2.71406C5.51606 2.54297 6.17075 2.33984 7.39184 2.27891C8.71762 2.23125 9.10825 2.21406 12.4489 2.21406L12.5004 2.25ZM12.5004 6.08359C11.6577 6.08329 10.8232 6.24904 10.0446 6.57139C9.26601 6.89373 8.55855 7.36635 7.96267 7.96223C7.36679 8.55811 6.89417 9.26557 6.57182 10.0442C6.24948 10.8228 6.08372 11.6573 6.08403 12.5C6.08372 13.3427 6.24948 14.1772 6.57182 14.9558C6.89417 15.7344 7.36679 16.4419 7.96267 17.0378C8.55855 17.6337 9.26601 18.1063 10.0446 18.4286C10.8232 18.751 11.6577 18.9167 12.5004 18.9164C13.3431 18.9167 14.1776 18.751 14.9563 18.4286C15.7349 18.1063 16.4423 17.6337 17.0382 17.0378C17.6341 16.4419 18.1067 15.7344 18.429 14.9558C18.7514 14.1772 18.9171 13.3427 18.9168 12.5C18.9171 11.6573 18.7514 10.8228 18.429 10.0442C18.1067 9.26557 17.6341 8.55811 17.0382 7.96223C16.4423 7.36635 15.7349 6.89373 14.9563 6.57139C14.1776 6.24904 13.3431 6.08329 12.5004 6.08359ZM12.5004 16.6664C10.1973 16.6664 8.33403 14.8031 8.33403 12.5C8.33403 10.1969 10.1973 8.33359 12.5004 8.33359C14.8036 8.33359 16.6668 10.1969 16.6668 12.5C16.6668 14.8031 14.8036 16.6664 12.5004 16.6664ZM20.6754 5.82734C20.675 6.22552 20.5166 6.60724 20.2349 6.88865C19.9532 7.17006 19.5713 7.32813 19.1731 7.32812C18.9762 7.32812 18.7813 7.28935 18.5994 7.214C18.4175 7.13866 18.2522 7.02823 18.113 6.88901C17.9738 6.7498 17.8633 6.58453 17.788 6.40263C17.7127 6.22074 17.6739 6.02579 17.6739 5.82891C17.6739 5.63203 17.7127 5.43707 17.788 5.25518C17.8633 5.07329 17.9738 4.90801 18.113 4.7688C18.2522 4.62958 18.4175 4.51915 18.5994 4.44381C18.7813 4.36847 18.9762 4.32969 19.1731 4.32969C19.9989 4.32969 20.6754 5.00156 20.6754 5.82734Z" fill="#DDDDDD"/>
</svg>
