<?xml version="1.0" encoding="utf-8"?>
<!-- Generator: Adobe Illustrator 16.0.0, SVG Export Plug-In . SVG Version: 6.00 Build 0)  -->
<!DOCTYPE svg PUBLIC "-//W3C//DTD SVG 1.1//EN" "http://www.w3.org/Graphics/SVG/1.1/DTD/svg11.dtd">
<svg version="1.1" id="Layer_1" xmlns="http://www.w3.org/2000/svg" xmlns:xlink="http://www.w3.org/1999/xlink" x="0px" y="0px"
	 width="512px" height="512px" viewBox="0 0 512 512" enable-background="new 0 0 512 512" xml:space="preserve">
<path fill="#926D5A" d="M420.25,453.063v41.873c0,4.714-3.818,8.532-8.533,8.532H100.283c-4.714,0-8.532-3.818-8.532-8.532v-41.873
	c0-43.932,35.612-79.522,79.554-79.533c15.529-0.011,29.203-8,37.074-20.115c7.907-12.152,7.092-22.72,7.092-31.261l0.16-0.396
	c-38.29-15.848-65.22-53.572-65.22-97.589v-3.338c-15.204,0-26.664-12.015-26.664-26.173v-44.326
	c-0.341-15.433,0.363-69.859,39.676-107.754C209.136-1.482,281.576,2.123,334.051,25.693c1.706,0.768,1.653,3.21-0.075,3.925
	l-13.684,5.631c-2.048,0.843-1.61,3.861,0.587,4.096l6.645,0.714c35.751,3.818,65.497,25.16,80.333,50.448
	c0.139,0.246,0.096,0.565-0.106,0.779c-11.818,12.052-18.431,28.274-18.431,45.168v56.655c0,15.284-12.383,27.72-27.73,27.72v3.338
	c0,44.017-26.931,81.742-65.22,97.589l0.16,0.396c0,8.299-0.881,19.007,7.092,31.261c7.872,12.115,21.545,20.104,37.074,20.115
	C384.638,373.539,420.25,409.131,420.25,453.063L420.25,453.063z"/>
<path fill="#42434D" d="M407.852,90.507c0.143,0.242,0.1,0.566-0.107,0.777c-11.81,12.057-18.425,28.281-18.425,45.171v56.655
	c0,15.283-12.38,27.72-27.73,27.72c0-32.275,0.019-49.141,0.012-58.208c-0.004-5.724-5.534-9.838-11.005-8.155
	c-17.194,5.29-37.252,8.016-58.332,3.435c-37.095-8.063-47.6-22.6-77.858-29.863c-33.81-8.106-64.473,17.79-64.26,50.917
	c0.064,10.889,0.245,24.499,0.267,41.873c-15.204,0-26.664-12.015-26.664-26.173v-44.326c-0.341-15.433,0.363-69.859,39.676-107.754
	C209.132-1.483,281.58,2.124,334.046,25.696c1.708,0.767,1.662,3.21-0.069,3.923l-13.685,5.634
	c-2.046,0.843-1.615,3.857,0.585,4.093l6.646,0.714C363.277,43.882,393.021,65.217,407.852,90.507z"/>
<path fill="#926D5A" d="M350.595,154.468c5.471-1.683,11.001,2.426,11.005,8.149c0.008,9.38-0.012,27.101-0.012,61.551
	c0,44.017-26.931,81.742-65.22,97.589c-69.238,28.741-145.958-22.316-145.958-97.589c0-19.465-0.196-33.295-0.267-45.211
	c-0.213-33.127,30.45-59.023,64.26-50.917c30.258,7.263,40.764,21.8,77.858,29.863C313.343,162.484,333.401,159.758,350.595,154.468
	z"/>
<path fill="#42434D" d="M420.25,453.063v41.873c0,4.712-3.821,8.532-8.533,8.532H100.283c-4.712,0-8.532-3.82-8.532-8.532v-41.873
	c0-43.932,35.618-79.518,79.549-79.533c15.534-0.006,29.21-8.004,37.079-20.115c27.468,23.467,67.759,23.48,95.243,0
	c7.868,12.111,21.546,20.109,37.079,20.115C384.632,373.545,420.25,409.131,420.25,453.063L420.25,453.063z"/>
<path fill="#4D4E59" d="M214.278,399.294c-3.944,1.24-8.174,1.924-12.709,1.964c-44.044,0.388-79.956,35.214-79.956,79.261v8.018
	c0,8.246-6.685,14.932-14.932,14.932h-6.399c-4.712,0-8.532-3.82-8.532-8.532v-41.873c0-43.933,35.618-79.518,79.549-79.533
	c15.534-0.006,29.21-8.004,37.079-20.115c3.172,2.709,6.568,5.144,10.145,7.275C234.258,370.066,231.751,393.8,214.278,399.294
	L214.278,399.294z"/>
<path fill="#2C2C33" d="M297.722,399.294c3.944,1.24,8.174,1.924,12.709,1.964c44.044,0.388,79.955,35.214,79.955,79.261v8.018
	c0,8.246,6.686,14.932,14.932,14.932h6.399c4.713,0,8.533-3.82,8.533-8.532v-41.873c0-43.933-35.618-79.518-79.55-79.533
	c-15.533-0.006-29.209-8.004-37.079-20.115c-3.172,2.709-6.567,5.144-10.145,7.275C277.742,370.066,280.25,393.8,297.722,399.294
	L297.722,399.294z"/>
<path fill="#926D5A" d="M297.734,339.666c-26.277,11-55.154,11.853-83.469,0c1.446-6,1.205-9.887,1.205-17.513l0.16-0.396
	c25.685,10.662,55.004,10.684,80.738,0l0.16,0.396C296.529,329.782,296.289,333.668,297.734,339.666z"/>
<path fill="#4D4E59" d="M333.976,29.618c-10.056,4.135-12.281,5.592-16.899,4.832C232.448,20.519,165.81,64.768,156.693,151.236
	c-0.16,1.518-0.549,3.008-1.222,4.377c-6.49,13.212-5.336,22.991-5.198,39.247c0.144,17.102-25.628,18.198-26.492,1.117
	c-0.055-1.066-0.033,1.745-0.033-45.646c-0.341-15.433,0.363-69.859,39.676-107.754c45.713-44.06,118.153-40.455,170.628-16.884
	C335.757,26.461,335.704,28.904,333.976,29.618z"/>
<path fill="#926D5A" d="M232.106,292.363c17.354,10.852,3.658,37.482-15.337,29.86c-39.012-15.656-66.357-53.69-66.357-98.054
	c0-19.489-0.196-33.249-0.267-45.211c-0.067-10.709,3.089-20.662,8.535-28.953c6.845-10.421,23.371-5.88,23.462,7.622
	c0.07,12.003,0.267,25.702,0.267,45.211C182.408,241.765,202.873,274.082,232.106,292.363L232.106,292.363z"/>
<path d="M428.782,453.065v50.402c0,4.712-3.82,8.532-8.532,8.532c-4.713,0-8.533-3.82-8.533-8.532v-50.402
	c0-39.244-31.756-71.002-71.004-71.002c-18.569,0-35.419-9.46-45.07-25.308c-2.451-4.024-1.176-9.274,2.85-11.725
	c4.021-2.455,9.272-1.178,11.724,2.848c6.53,10.721,17.932,17.119,30.497,17.119C389.389,364.996,428.782,404.387,428.782,453.065
	L428.782,453.065z M269.732,361.016c-17.862,3.893-35.991-0.059-50.374-9.934c2.467-5.459,3.982-11.332,4.464-17.418
	c73.137,21.529,146.299-33.671,146.299-109.496c0-72.366,0.089-71.214-0.204-74.181c-1.123-11.761-18.117-10.161-16.983,1.673
	c0.191,1.935,0.123,3.627,0.123,72.506c0,53.518-43.539,97.057-97.057,97.057s-97.057-43.539-97.057-97.057
	c0-19.221-0.205-34.106-0.272-45.268c-0.173-28.002,25.722-49.28,53.744-42.563c39.521,9.476,55.448,34.126,106.104,31.767
	c4.706-0.221,8.344-4.215,8.123-8.923c-0.222-4.707-4.19-8.319-8.923-8.123c-45.666,2.147-58.324-21.003-101.324-31.315
	c-38.878-9.326-75.026,20.254-74.788,59.262c0.058,9.072,0.177,19.008,0.237,31.246c-5.68-2.961-9.565-8.836-9.565-15.594
	c0-0.195,0.001-44.32-0.002-44.514c-0.428-19.34,2.327-67.936,37.067-101.423c38.813-37.413,99.54-37.426,146.756-20.968
	l-6.821,2.807c-8.143,3.35-6.44,15.433,2.339,16.374l14.998,1.606c28.865,3.091,54.393,18.143,70.747,41.533
	c-10.733,13.043-16.576,29.278-16.576,46.382v58.202c0,4.712,3.82,8.532,8.532,8.532s8.532-3.82,8.532-8.532v-58.202
	c0-14.828,5.727-28.805,16.124-39.352c2.896-2.933,3.25-7.667,1.231-10.925c-17.012-27.281-42.325-44.848-71.215-51.893
	c4.673-3.987,3.754-11.394-1.655-14.13C317.53,7.626,282.146-1.169,248.473,0.127c-85.188,3.302-135.055,66.922-133.257,150.299
	v44.232c0,16.324,11.42,30.042,26.75,33.726c1.59,43.581,27.729,81.001,64.974,98.81v2.246C206.939,349.11,191,365,171.288,365
	c-48.777,0-88.068,39.485-88.068,88.066v50.402c0,4.712,3.82,8.532,8.532,8.532s8.533-3.82,8.533-8.532v-50.402
	c0-39.242,31.756-71.002,71.003-71.002c14.53,0,28.366-5.823,38.601-16.791c18.19,12.416,41.029,17.309,63.477,12.416
	c4.604-1.002,7.523-5.549,6.521-10.153C278.882,362.931,274.333,360.008,269.732,361.016L269.732,361.016z M342.391,468.271h-25.597
	c-4.712,0-8.532,3.82-8.532,8.532s3.82,8.532,8.532,8.532h25.597c4.713,0,8.533-3.82,8.533-8.532S347.104,468.271,342.391,468.271z"
	/>
</svg>
