<?xml version="1.0"?>
<svg xmlns="http://www.w3.org/2000/svg" xmlns:xlink="http://www.w3.org/1999/xlink" version="1.1" id="Layer_1" x="0px" y="0px" viewBox="0 0 512 512" style="enable-background:new 0 0 512 512;" xml:space="preserve" width="512px" height="512px"><g><g>
	<g>
		<g>
			<path d="M146.083,242.333c0.333-0.313,8.375-7.667,24.583-7.667c16.208,0,24.25,7.354,24.458,7.542     c2.083,2.083,4.813,3.125,7.542,3.125c2.729,0,5.458-1.042,7.542-3.125c4.167-4.167,4.167-10.917,0-15.083     c-1.417-1.417-14.521-13.792-39.542-13.792c-25.021,0-38.125,12.375-39.542,13.792c-4.125,4.115-4.104,10.708-0.063,14.896     C135.125,246.188,141.833,246.302,146.083,242.333z" data-original="#000000" class="active-path" data-old_color="#000000" fill="#000000"/>
			<path d="M341.333,213.333c-25.021,0-38.125,12.375-39.542,13.792c-4.125,4.115-4.104,10.708-0.063,14.896     c4.042,4.167,10.771,4.281,15.021,0.313c0.333-0.313,8.375-7.667,24.583-7.667c16.208,0,24.25,7.354,24.458,7.542     c2.083,2.083,4.813,3.125,7.542,3.125c2.729,0,5.458-1.042,7.542-3.125c4.167-4.167,4.167-10.917,0-15.083     C379.458,225.708,366.354,213.333,341.333,213.333z" data-original="#000000" class="active-path" data-old_color="#000000" fill="#000000"/>
			<path d="M169.125,315.198c-1.708-12.823-4.563-34.292,0.313-43.563c2.167-4.094,1.417-9.125-1.813-12.427     c-3.25-3.333-8.271-4.156-12.396-2.083c-39.646,19.823-48.563,60.76-48.563,73.542c0,17.646,14.354,32,32,32     c17.646,0,32-14.354,32-32C170.667,327.125,169.979,321.656,169.125,315.198z M138.667,341.333     c-5.875,0-10.667-4.781-10.667-10.667c0-5.26,3.542-24.052,17.417-39.635c0.208,9.385,1.479,18.885,2.563,26.99     c0.708,5.281,1.354,9.75,1.354,12.646C149.333,336.552,144.542,341.333,138.667,341.333z" data-original="#000000" class="active-path" data-old_color="#000000" fill="#000000"/>
			<path d="M256,320c-47.062,0-85.333,38.281-85.333,85.333c0,3.438,0.438,6.76,1.125,11.615c0.5,3.646,2.833,6.781,6.188,8.292     c1.396,0.625,2.896,0.938,4.375,0.938c2.083,0,4.146-0.615,5.938-1.802c36.625-24.563,98.792-24.563,135.417,0     c3,2.021,7.021,1.604,10.396,0.083c3.354-1.5,5.813-5.406,6.333-9.042c0.458-3.323,0.896-6.646,0.896-10.083     C341.333,358.281,303.063,320,256,320z M256,384c-22.708,0-44.687,4.76-63.542,13.615c3.833-31.667,30.854-56.281,63.542-56.281     s59.708,24.615,63.542,56.281C300.688,388.761,278.708,384,256,384z" data-original="#000000" class="active-path" data-old_color="#000000" fill="#000000"/>
			<path d="M475.344,256.417c-17.389-82.859-83.143-146.035-166.648-165.039c-0.241-0.035-0.464-0.13-0.706-0.148     c-16.724-3.753-34.091-5.896-51.99-5.896c-11.018,0-21.801,0.931-32.409,2.382c-14.173-16.582-13.599-41.533,2.086-57.21     c11.958-11.974,32.792-11.974,44.75,0c9.042,9.047,9.042,23.77,0,32.818c-4.167,4.164-4.167,10.911,0,15.076     c4.167,4.164,10.917,4.164,15.083,0c17.375-17.357,17.375-45.613,0-62.97C274.849,4.761,259.948-0.644,245.328,0.061     c-12.806,0.618-25.396,6.023-34.734,15.367c-20.728,20.727-23.876,52.219-9.944,76.508     C118.4,111.66,53.862,174.43,36.656,256.417C15.969,259.354,0,277.177,0,298.667c0,21.49,15.969,39.313,36.656,42.25     C57.573,440.583,148.375,512,256,512s198.427-71.417,219.344-171.083c20.688-2.938,36.656-20.76,36.656-42.25     C512,277.177,496.031,259.354,475.344,256.417z M469.531,320.01l-2.135-0.26c-5.594-0.625-10.542,3.385-11.448,8.875     C440.375,422.521,356.281,490.667,256,490.667S71.625,422.521,56.052,328.625c-0.854-5.167-7.031-8.667-12.375-8.667     c-0.344,0-0.677,0.01-1.01,0.042c-11.76,0-21.333-9.573-21.333-21.333c0-11.76,9.573-21.333,21.135-21.344l2.135,0.26     c5.354,0.448,10.542-3.385,11.448-8.875c13.484-81.301,78.374-143.207,160.628-158.375C230.753,121.832,247.702,128,264.885,128     c15.525,0,30.995-5.035,44.4-14.656c75.561,19.27,133.951,78.717,146.663,155.365c0.906,5.49,5.833,9.292,11.448,8.875     l1.938-0.25c11.76,0,21.333,9.573,21.333,21.333C490.667,310.427,481.094,320,469.531,320.01z" data-original="#000000" class="active-path" data-old_color="#000000" fill="#000000"/>
		</g>
	</g>
</g></g> </svg>
