<svg height="512" viewBox="0 0 512 512" width="512" xmlns="http://www.w3.org/2000/svg"><g id="Crying_Face" data-name="Crying Face"><g id="Flat"><path d="m256 512a256 256 0 0 1 -181.02-437.02 256 256 0 0 1 362.04 362.04 254.331 254.331 0 0 1 -181.02 74.98z" fill="#ffcc80"/><path d="m437.02 74.98q-6.261-6.26-12.878-12.02a256.574 256.574 0 0 1 -59.122 270.06 256 256 0 0 1 -349.162 12.02 256.057 256.057 0 1 0 421.162-270.06z" fill="#ffb74d"/><path d="m424 192a8 8 0 0 1 -8-8 48.053 48.053 0 0 0 -48-48 8 8 0 0 1 0-16 64.072 64.072 0 0 1 64 64 8 8 0 0 1 -8 8z" fill="#616161"/><path d="m88 192a8 8 0 0 1 -8-8 64.072 64.072 0 0 1 64-64 8 8 0 0 1 0 16 48.053 48.053 0 0 0 -48 48 8 8 0 0 1 -8 8z" fill="#616161"/><path d="m136 384a8 8 0 0 1 -8-8 40.045 40.045 0 0 1 40-40h120a8 8 0 0 1 0 16h-120a24.028 24.028 0 0 0 -24 24 8 8 0 0 1 -8 8z" fill="#e53935"/><circle cx="328" cy="216" fill="#616161" r="24"/><circle cx="184" cy="216" fill="#616161" r="24"/><circle cx="176" cy="208" fill="#fff" r="8"/><circle cx="320" cy="208" fill="#fff" r="8"/><path d="m199.915 198.057c.051.641.085 1.288.085 1.943a23.983 23.983 0 0 1 -39.915 17.943 24 24 0 1 0 39.83-19.886z" fill="#424242"/><path d="m343.915 198.057c.051.641.085 1.288.085 1.943a23.983 23.983 0 0 1 -39.915 17.943 24 24 0 1 0 39.83-19.886z" fill="#424242"/><path d="m328 448a72.081 72.081 0 0 1 -72-72c0-16.364 11.27-40.392 33.5-71.414 16.066-22.424 31.871-40.171 32.536-40.915l5.967-6.68 5.967 6.68c.665.744 16.471 18.491 32.536 40.915 22.224 31.022 33.494 55.05 33.494 71.414a72.081 72.081 0 0 1 -72 72z" fill="#2196f3"/><path d="m378.93 323.008a116.048 116.048 0 0 1 -110.93 81.992q-2.993 0-5.948-.15a71.988 71.988 0 0 0 137.948-28.85c0-12.964-7.08-30.742-21.07-52.992z" fill="#1e88e5"/><circle cx="320.974" cy="329" fill="#90caf9" r="20"/><circle cx="304.974" cy="369" fill="#90caf9" r="12"/><g fill="#ffe4c0"><circle cx="56" cy="264" r="24"/><circle cx="456" cy="264" r="24"/></g></g></g></svg>