<?xml version="1.0" encoding="utf-8"?>
<!-- Generator: Adobe Illustrator 16.0.0, SVG Export Plug-In . SVG Version: 6.00 Build 0)  -->
<!DOCTYPE svg PUBLIC "-//W3C//DTD SVG 1.1//EN" "http://www.w3.org/Graphics/SVG/1.1/DTD/svg11.dtd">
<svg version="1.1" id="hands" xmlns="http://www.w3.org/2000/svg" xmlns:xlink="http://www.w3.org/1999/xlink" x="0px" y="0px"
	 width="512px" height="512px" viewBox="0 0 512 512" enable-background="new 0 0 512 512" xml:space="preserve">
<g>
	<circle fill="#EFEFD2" cx="211.626" cy="290.133" r="146.773"/>
	<g>
		<circle fill="#4C241D" cx="235.52" cy="416.426" r="6.827"/>
		<circle fill="#4C241D" cx="433.493" cy="143.36" r="6.827"/>
		<path fill="#4C241D" d="M81.92,395.947c-13.174,0-23.893-10.721-23.893-23.895S68.746,348.16,81.92,348.16
			s23.894,10.719,23.894,23.893S95.094,395.947,81.92,395.947z M81.92,361.813c-5.647,0-10.24,4.593-10.24,10.239
			c0,5.648,4.592,10.24,10.24,10.24s10.24-4.592,10.24-10.24C92.16,366.406,87.567,361.813,81.92,361.813z"/>
		<path fill="#4C241D" d="M447.146,464.213H64.854c-3.773,0-6.827-3.057-6.827-6.826c0-3.771,3.053-6.827,6.827-6.827h382.293
			c3.773,0,6.827,3.057,6.827,6.827C453.974,461.156,450.92,464.213,447.146,464.213z"/>
	</g>
	<g>
		<path fill="#E7D1C4" d="M180.907,129.707h-30.72c-16.966,0-30.72-13.754-30.72-30.72V85.333c0-16.966,13.754-30.72,30.72-30.72
			c16.966,0,30.72,13.754,30.72,30.72V129.707z"/>
		<path fill="#4C241D" d="M180.907,136.533h-30.72c-20.7,0-37.546-16.843-37.546-37.546V85.333
			c0-20.704,16.846-37.547,37.546-37.547s37.547,16.843,37.547,37.547v44.373C187.733,133.477,184.68,136.533,180.907,136.533z
			 M150.187,61.44c-13.174,0-23.893,10.72-23.893,23.894v13.653c0,13.174,10.719,23.893,23.893,23.893h23.894V85.333
			C174.08,72.16,163.36,61.44,150.187,61.44z"/>
	</g>
	<g>
		<path fill="#9DC1E4" d="M180.907,221.933v-41.026c0-16.966-13.754-30.72-30.72-30.72c-16.966,0-30.72,13.754-30.72,30.72v81.919
			c0,15.797,11.969,28.658,27.307,30.376L133.12,430.08v6.826v20.48h54.613c0-12.71-15.549-23.296-27.307-26.341l20.48-157.979
			V221.933z"/>
		<path fill="#4C241D" d="M187.733,464.213H133.12c-3.773,0-6.827-3.057-6.827-6.826V430.08l13.08-131.444
			c-15.626-4.666-26.733-19.046-26.733-35.81v-81.919c0-20.704,16.846-37.547,37.546-37.547s37.547,16.843,37.547,37.547v92.16
			c0,0.294-0.021,0.588-0.053,0.877l-19.76,152.425c12.521,5.068,26.64,16.402,26.64,31.019
			C194.56,461.156,191.507,464.213,187.733,464.213z M139.947,450.56h38.473c-4-5.746-12.173-10.956-19.707-12.903
			c-3.333-0.864-5.501-4.074-5.061-7.487l20.427-157.542v-91.72c0-13.174-10.72-23.894-23.894-23.894s-23.893,10.72-23.893,23.894
			v81.919c0,12.094,9.134,22.233,21.239,23.594c3.714,0.416,6.407,3.742,6.033,7.459l-13.653,136.877L139.947,450.56z
			 M180.907,273.066h0.066H180.907z"/>
	</g>
	<g>
		<path fill="#E7D1C4" d="M262.83,266.243c-1.33,0-2.68-0.196-4.02-0.605l-75.093-20.48c-2.86-0.881-5.354-2.676-7.093-5.113
			l-34.133-47.787c-4.383-6.137-2.963-14.664,3.173-19.046c6.137-4.379,14.667-2.966,19.046,3.172l31.45,44.03l70.683,19.124
			c7.207,2.217,11.251,9.856,9.033,17.066C274.07,262.47,268.667,266.243,262.83,266.243z"/>
		<path fill="#4C241D" d="M262.826,273.07c-2.032,0-4.06-0.308-6.02-0.906l-74.879-20.42c-4.494-1.374-8.274-4.103-10.859-7.743
			l-34.126-47.776c-3.18-4.449-4.441-9.873-3.54-15.27c0.901-5.396,3.847-10.121,8.3-13.3c4.453-3.183,9.907-4.427,15.287-3.533
			c5.393,0.903,10.114,3.854,13.279,8.303l30.034,42.037l68.32,18.487c11.02,3.379,17.101,14.863,13.786,25.659
			C279.732,267.264,271.867,273.07,262.826,273.07z M153.593,177.49c-1.413,0-2.787,0.44-3.959,1.277
			c-1.487,1.06-2.466,2.633-2.767,4.431c-0.3,1.8,0.12,3.606,1.179,5.089l34.133,47.79c0.867,1.214,2.12,2.117,3.546,2.553
			l74.88,20.42c0.874,0.263,1.546,0.367,2.22,0.367c3.015,0,5.641-1.94,6.533-4.83c1.102-3.591-0.926-7.42-4.525-8.523
			l-70.453-19.06c-1.527-0.413-2.86-1.34-3.773-2.624l-31.454-44.03c-1.06-1.483-2.626-2.462-4.42-2.763
			C154.353,177.524,153.967,177.49,153.593,177.49L153.593,177.49z"/>
	</g>
	<g>
		<path fill="#E7D1C4" d="M344.75,129.707h30.72c16.967,0,30.721-13.754,30.721-30.72V85.333c0-16.966-13.754-30.72-30.721-30.72
			c-16.966,0-30.72,13.754-30.72,30.72V129.707z"/>
		<path fill="#4C241D" d="M375.474,136.533h-30.72c-3.773,0-6.827-3.057-6.827-6.827V85.333c0-20.704,16.847-37.547,37.547-37.547
			s37.547,16.843,37.547,37.547v13.653C413.021,119.69,396.174,136.533,375.474,136.533z M351.58,122.88h23.894
			c13.174,0,23.894-10.719,23.894-23.893V85.333c0-13.174-10.72-23.894-23.894-23.894S351.58,72.16,351.58,85.333V122.88z"/>
	</g>
	<g>
		<path fill="#6B4F5B" d="M344.75,221.933v-41.026c0-16.966,13.754-30.72,30.72-30.72c16.967,0,30.721,13.754,30.721,30.72v81.919
			c0,15.797-11.969,28.658-27.307,30.376l13.653,136.878v6.826v20.48h-54.613c0-12.71,15.549-23.296,27.307-26.341l-20.48-157.979
			V221.933z"/>
		<path fill="#4C241D" d="M392.54,464.213h-54.613c-3.773,0-6.826-3.057-6.826-6.826c0-14.616,14.119-25.95,26.639-31.021
			l-19.76-152.424c-0.034-0.29-0.053-0.584-0.053-0.878v-92.16c0-20.704,16.847-37.546,37.547-37.546s37.547,16.843,37.547,37.546
			v81.92c0,16.759-11.107,31.14-26.733,35.81L399.334,429.4l0.034,27.982C399.367,461.156,396.313,464.213,392.54,464.213
			L392.54,464.213z M347.24,450.56h38.474V430.08l-13.619-136.201c-0.374-3.717,2.319-7.043,6.032-7.459
			c12.107-1.36,21.24-11.504,21.24-23.594v-81.919c0-13.174-10.72-23.894-23.894-23.894s-23.894,10.72-23.894,23.894v91.72
			l20.427,157.544c0.44,3.413-1.727,6.623-5.06,7.486C359.414,439.604,351.24,444.813,347.24,450.56z"/>
	</g>
	<g>
		<path fill="#E7D1C4" d="M262.826,266.243c1.33,0,2.68-0.196,4.02-0.605l75.094-20.48c2.86-0.881,5.354-2.676,7.093-5.113
			l34.133-47.787c4.383-6.137,2.963-14.664-3.172-19.046c-6.138-4.379-14.667-2.966-19.047,3.172l-31.45,44.03l-70.684,19.124
			c-7.207,2.217-11.25,9.856-9.033,17.066C251.586,262.47,256.99,266.243,262.826,266.243L262.826,266.243z"/>
		<path fill="#4C241D" d="M262.826,273.07c-9.04,0-16.906-5.81-19.573-14.457c-3.313-10.804,2.767-22.284,13.553-25.601
			l68.554-18.553l30.033-42.044c3.173-4.453,7.9-7.4,13.301-8.299c5.379-0.881,10.813,0.36,15.266,3.536
			c4.453,3.179,7.4,7.903,8.3,13.3s-0.36,10.82-3.54,15.273l-34.133,47.783c-2.595,3.634-6.373,6.361-10.64,7.67l-75.307,20.543
			C266.88,272.766,264.854,273.07,262.826,273.07L262.826,273.07z M372.067,177.49c-0.374,0-0.753,0.034-1.134,0.098
			c-1.801,0.297-3.374,1.28-4.427,2.759l-31.454,44.034c-0.913,1.284-2.246,2.21-3.773,2.624l-70.687,19.123
			c-3.367,1.04-5.393,4.871-4.287,8.474c1.073,3.477,4.946,5.606,8.54,4.511l75.3-20.54c1.207-0.377,2.466-1.283,3.333-2.493
			l34.134-47.787c1.06-1.487,1.479-3.294,1.179-5.093c-0.3-1.797-1.279-3.371-2.767-4.431
			C374.854,177.93,373.48,177.49,372.067,177.49L372.067,177.49z"/>
	</g>
	<path fill="#4C241D" d="M262.826,109.227c-3.773,0-6.826-3.057-6.826-6.827V75.093c0-3.77,3.053-6.827,6.826-6.827
		s6.827,3.057,6.827,6.827V102.4C269.653,106.17,266.6,109.227,262.826,109.227z"/>
	<path fill="#4C241D" d="M283.307,122.88c-1.746,0-3.494-0.667-4.826-2c-2.666-2.666-2.666-6.987,0-9.653l20.479-20.48
		c2.666-2.666,6.987-2.666,9.653,0c2.666,2.666,2.666,6.987,0,9.653l-20.48,20.48C286.801,122.213,285.053,122.88,283.307,122.88z"
		/>
	<path fill="#4C241D" d="M242.347,122.88c-1.746,0-3.494-0.667-4.827-2l-20.48-20.48c-2.666-2.666-2.666-6.987,0-9.653
		c2.666-2.666,6.987-2.666,9.653,0l20.48,20.48c2.666,2.666,2.666,6.987,0,9.653C245.84,122.213,244.093,122.88,242.347,122.88z"/>
</g>
</svg>
