<svg id="LINE" enable-background="new 0 0 36 36" height="512" viewBox="0 0 36 36" width="512" xmlns="http://www.w3.org/2000/svg"><path d="m4.167 27.623c0-6.917-3.583-11.667-3.583-15s1.916-10.333 17.249-10.333 17.583 9.417 17.583 13.083c.001 17.167-31.249 24.5-31.249 12.25z" fill="#efefef"/><g fill="#a4afc1"><path d="m27.171 2.924h1v2h-1z" transform="matrix(.707 -.707 .707 .707 5.33 20.716)"/><path d="m31.237 6.99h1v2h-1z" transform="matrix(.707 -.707 .707 .707 3.646 24.782)"/><path d="m30.737 3.247h2v1h-2z" transform="matrix(.707 -.707 .707 .707 6.646 23.539)"/><path d="m4.376 30.75c-.827 0-1.5-.673-1.5-1.5s.673-1.5 1.5-1.5 1.5.673 1.5 1.5-.673 1.5-1.5 1.5zm0-2c-.275 0-.5.225-.5.5s.225.5.5.5.5-.225.5-.5-.225-.5-.5-.5z"/></g><path d="m24.991 19.35c-.098.166-.205.333-.323.489-.92 1.321-1.418 2.886-1.418 4.49v4.921h-8.5v-3.913l-3.09.845c-.137.049-.284.068-.43.068-.812 0-1.467-.655-1.467-1.467v-3.533h-2.57c-.274 0-.489-.215-.489-.489 0-.098.279-.512.328-.59l2.162-3.129c.372-.587.567-1.272.567-1.976 0-2.289.806-4.373 2.313-5.879s3.59-2.436 5.879-2.436c.284 0 .567.01.851.039h.01z" fill="#f3f3f1"/><path d="m29.25 10.5c0-2.362-2.184-4.214-4.643-3.647-1.386.32-2.495 1.47-2.778 2.864-.329 1.621.391 3.094 1.599 3.893.532.352.821.975.821 1.613v1.285c0 .488.258.741.577.741h1.346c.319 0 .577-.258.577-.577v-1.425c0-.644.281-1.281.818-1.636 1.013-.667 1.683-1.807 1.683-3.111z" fill="#2fdf84"/><path d="m26.25 16.509v-1.285c0-.638-.289-1.261-.821-1.613-1.208-.8-1.928-2.272-1.599-3.893.274-1.351 1.327-2.466 2.653-2.825-.582-.159-1.216-.191-1.875-.039-1.386.32-2.495 1.47-2.778 2.864-.329 1.621.391 3.094 1.599 3.893.532.352.821.975.821 1.613v1.285c0 .488.258.741.577.741h1.346c.128 0 .239-.05.335-.12-.152-.117-.258-.318-.258-.621z" fill="#00b871"/><path d="m11.762 24.783v-3.533h-2v3.533c0 .812.655 1.467 1.467 1.467.147 0 .294-.02.43-.068l.728-.199c-.377-.266-.625-.703-.625-1.2z" fill="#d5dbe1"/><path d="m8.704 20.761c0-.098.279-.512.328-.59l2.162-3.129c.372-.587.567-1.272.567-1.976 0-2.289.806-4.373 2.313-5.879 1.257-1.257 2.918-2.103 4.762-2.352l-.022-.045c-.01 0-.01 0-.01 0-.282-.03-.566-.04-.85-.04-2.289 0-4.373.929-5.879 2.436s-2.313 3.59-2.313 5.879c0 .704-.196 1.389-.567 1.976l-2.162 3.129c-.049.078-.328.492-.328.59 0 .274.215.489.489.489h2c-.275.001-.49-.214-.49-.488z" fill="#d5dbe1"/><path d="m14.75 25.883v3.367h2v-3.913z" fill="#d5dbe1"/><path d="m10.512 15.065h-1.5c0-2.5.899-4.776 2.533-6.41 1.712-1.712 3.988-2.655 6.409-2.655v1.5c-2.021 0-3.92.787-5.349 2.216-1.35 1.35-2.093 3.25-2.093 5.349z"/><path d="m23.25 30h-8.5c-.414 0-.75-.336-.75-.75v-2.929l-2.144.582c-.155.06-.379.097-.626.097-1.225 0-2.221-.996-2.221-2.22v-2.78h-1.819c-.684 0-1.24-.557-1.24-1.24 0-.276.132-.509.411-.938l2.212-3.208c.281-.438.437-.978.437-1.544 0-2.502.898-4.778 2.53-6.41.203-.204.419-.398.635-.582.239-.193.465-.365.701-.527.262-.171.499-.32.758-.461.287-.144.531-.266.785-.377.539-.232 1.136-.413 1.777-.539.267-.053.536-.096.816-.129 1.015-.109 2.028-.037 2.905.164l-.336 1.463c-.75-.173-1.656-.218-2.402-.136-.232.026-.463.063-.693.109-.538.105-1.031.254-1.469.443-.228.1-.449.211-.671.321-.222.119-.424.249-.637.388-.189.13-.384.278-.578.436-.171.146-.355.311-.53.486-1.35 1.35-2.092 3.249-2.092 5.351 0 .854-.238 1.676-.688 2.376l-2.107 3.054h2.046c.414 0 .75.336.75.75v3.53c0 .396.323.72.721.72.072 0 .125-.008.175-.025l3.148-.858c.225-.062.466-.014.651.128.187.142.295.362.295.596v3.16h7v-4.17c0-1.589.443-3.146 1.282-4.504l1.275.787c-.691 1.12-1.057 2.406-1.057 3.716v4.92c0 .414-.336.75-.75.75z"/><path d="m26.173 18h-1.346c-.659 0-1.327-.513-1.327-1.491v-1.285c0-.411-.186-.79-.485-.988-1.535-1.017-2.289-2.849-1.92-4.668.34-1.677 1.684-3.062 3.344-3.445 1.382-.319 2.797-.003 3.883.872l-.942 1.167c-.723-.582-1.672-.793-2.604-.579-1.097.254-1.985 1.171-2.21 2.282-.251 1.236.238 2.432 1.277 3.12.724.48 1.157 1.317 1.157 2.239v1.276h1v-1.252c0-.938.432-1.784 1.155-2.262.842-.556 1.345-1.485 1.345-2.486 0-.571-.16-1.126-.464-1.604l1.266-.805c.457.72.698 1.553.698 2.409 0 1.506-.755 2.903-2.019 3.738-.297.196-.481.583-.481 1.01v1.425c0 .731-.596 1.327-1.327 1.327z"/></svg>